<mxfile host="app.diagrams.net" modified="2023-08-09T12:25:17.261Z" agent="Mozilla/5.0 (Windows NT 10.0; Win64; x64) AppleWebKit/537.36 (KHTML, like Gecko) Chrome/115.0.0.0 Safari/537.36" version="21.6.7" etag="x5-72wlHeHIE_F91Elv3" type="github">
  <diagram name="Страница — 1" id="qROckgiQK7EX2VFDrzop">
    <mxGraphModel>
      <root>
        <mxCell id="0" />
        <mxCell id="1" parent="0" />
      </root>
    </mxGraphModel>
  </diagram>
</mxfile>
